<svg width="141" height="24" viewBox="0 0 141 24" fill="none" xmlns="http://www.w3.org/2000/svg">
<g id="Stone_StoneEntrega_Prancheta 1 1">
<g id="Group">
<path id="Vector" d="M55.391 4.02393C49.8663 4.02393 47.4802 7.74136 47.4802 11.9868V21.8839C47.4802 22.0347 47.6062 22.1351 47.757 22.1351H51.3481C51.499 22.1351 51.6242 22.0347 51.6242 21.8839V11.9619C51.6242 9.14821 53.0057 7.66593 55.391 7.66593C57.7763 7.66593 59.133 9.14821 59.133 11.9619V21.8846C59.133 22.0355 59.2589 22.1358 59.409 22.1358H63.0002C63.151 22.1358 63.2762 22.0355 63.2762 21.8846V11.9868C63.2762 7.74136 60.9158 4.02393 55.391 4.02393Z" fill="#00A868"/>
<path id="Vector_2" d="M25.4815 18.5438C25.3058 18.5438 24.8035 18.6442 24.4016 18.6442C22.8443 18.6442 22.1663 18.0663 22.1663 16.71V8.34506H25.4815C25.6323 8.34506 25.7575 8.21983 25.7575 8.06896V4.82829C25.7575 4.67743 25.6323 4.55219 25.4815 4.55219H22.0411V1.73849C22.0411 1.43676 21.9152 1.31152 21.689 1.31152H18.2984C18.0224 1.31152 17.8965 1.43749 17.8965 1.73849V17.137C17.8965 20.88 19.9809 22.3623 23.0449 22.3623C24.3511 22.3623 25.2047 22.2115 25.5811 22.0606C25.707 22.0101 25.7817 21.8848 25.7817 21.7845V18.8199C25.7817 18.6442 25.7063 18.5438 25.48 18.5438H25.4815Z" fill="#00A868"/>
<path id="Vector_3" d="M9.86127 11.4349L8.22933 11.0833C6.9986 10.8072 6.32063 10.2294 6.32063 9.24952C6.32063 7.99354 7.57626 7.31537 9.30924 7.31537C11.7451 7.31537 13.4026 8.4205 13.6538 8.4205C13.779 8.4205 13.9298 8.32017 13.9803 8.1942L14.6334 5.75766C14.7593 5.43103 14.7337 5.35559 14.5082 5.23036C13.052 4.47677 11.4947 4.0498 9.28435 4.0498C5.19093 4.0498 2.35315 6.41092 2.35315 9.55125C2.35315 12.5158 4.63817 14.1482 7.90352 14.8513L9.56036 15.2028C10.8914 15.4789 11.6448 16.007 11.6448 17.137C11.6448 18.267 10.7406 19.2974 8.60638 19.2974C5.59288 19.2974 3.5341 18.0912 3.20756 18.0912C3.00695 18.0912 2.93154 18.1916 2.85613 18.5182L2.42929 20.5527C2.3041 20.9797 2.42929 21.2565 2.70531 21.3817C3.7347 21.9595 6.5476 22.5623 8.63201 22.5623C12.6756 22.5623 15.5632 20.0752 15.5632 16.8353C15.5632 13.1925 13.1523 12.1379 9.86274 11.4341L9.86127 11.4349Z" fill="#00A868"/>
<path id="Vector_4" d="M36.0288 4.02393C30.78 4.02393 26.9128 7.94276 26.9128 13.3439C26.9128 18.745 30.7808 22.6887 36.0288 22.6887C41.2768 22.6887 45.1447 18.745 45.1447 13.3439C45.1447 7.94276 41.3024 4.02393 36.0288 4.02393ZM36.0288 19.0709C33.3923 19.0709 30.9806 17.0862 30.9806 13.3439C30.9806 9.60154 33.3916 7.66666 36.0288 7.66666C38.6659 7.66666 41.0513 9.60081 41.0513 13.3439C41.0513 17.0869 38.6908 19.0709 36.0288 19.0709Z" fill="#00A868"/>
<path id="Vector_5" d="M82.8266 13.1425C82.8266 7.59123 79.6374 4.02393 74.5644 4.02393C69.793 4.02393 65.674 7.69156 65.674 13.2684C65.674 19.2218 69.8933 22.6887 74.4135 22.6887C78.2053 22.6887 80.6668 21.1815 81.7467 19.3726C81.9729 18.9955 82.0483 18.8702 82.0483 18.7699C82.0483 18.6696 81.9985 18.5941 81.7723 18.3935L80.1901 17.0115C79.8138 16.6849 79.6879 16.5845 79.5627 16.5845C79.4375 16.5845 79.3621 16.66 79.2611 16.7852C78.1811 18.2419 76.6744 19.0709 74.6405 19.0709C72.0765 19.0709 70.3721 17.325 69.9372 14.4988H81.3206C82.6267 14.4988 82.8273 14.1224 82.8273 13.1425H82.8266ZM74.4135 7.51579C77.1539 7.51579 78.5977 9.36572 78.6768 11.4097H70.0053C70.4841 9.21925 71.9543 7.51579 74.4135 7.51579Z" fill="#00A868"/>
</g>
<g id="Group_2">
<path id="Vector_6" d="M89.506 17.0716C88.8243 16.3495 88.4839 15.3638 88.4839 14.1136C88.4839 13.2018 88.6428 12.4255 88.9598 11.7855C89.2775 11.1454 89.7205 10.6584 90.2886 10.3252C90.8568 9.99193 91.5201 9.82568 92.2778 9.82568C93.3021 9.82568 94.0526 10.1047 94.5285 10.6628C95.0043 11.2216 95.243 12.0022 95.243 13.0063C95.243 13.3754 95.2277 13.642 95.1969 13.8053H89.1128L89.1282 12.9909H94.751L94.3059 13.4523C94.3161 13.278 94.3264 13.0986 94.3366 12.9148C94.3366 12.1773 94.1653 11.6163 93.8219 11.2318C93.4786 10.8473 92.9587 10.6554 92.2625 10.6554C91.4022 10.6554 90.7235 10.9352 90.2271 11.4933C89.73 12.052 89.4818 12.8789 89.4818 13.9752C89.4818 15.0715 89.7329 15.9167 90.2344 16.4799C90.736 17.0438 91.5296 17.325 92.6161 17.325C93.2201 17.325 93.7194 17.2562 94.1141 17.1177C94.508 16.9793 94.8645 16.7721 95.1815 16.4952V17.4327C94.5673 17.9138 93.6806 18.1548 92.5238 18.1548C91.1921 18.1548 90.1861 17.7937 89.5052 17.0709L89.506 17.0716Z" fill="#00A868"/>
<path id="Vector_7" d="M96.9622 9.97972H97.9147V18.0019H96.9622V9.97972ZM101.87 11.1398C101.558 10.8168 101.064 10.6557 100.388 10.6557C99.9581 10.6557 99.5554 10.7304 99.182 10.8791C98.8086 11.0277 98.5033 11.2482 98.2683 11.5396C98.0325 11.8318 97.9147 12.1826 97.9147 12.5928L97.6533 11.8245L97.7148 11.6861C97.8891 11.0717 98.2376 10.6081 98.7596 10.2954C99.2823 9.98265 99.9017 9.82666 100.618 9.82666C101.51 9.82666 102.18 10.039 102.631 10.4645C103.082 10.89 103.307 11.5631 103.307 12.4858V18.0027H102.339V12.5935C102.339 11.9476 102.182 11.4635 101.87 11.1412V11.1398Z" fill="#00A868"/>
<path id="Vector_8" d="M106.399 17.8788C106.056 17.6942 105.805 17.4049 105.647 17.0109C105.488 16.6162 105.409 16.0757 105.409 15.3895V8.3347L106.392 8.19629V9.97957H109.296V10.8247H106.392V15.2965C106.392 15.8289 106.44 16.2441 106.538 16.5415C106.635 16.8388 106.801 17.0461 107.037 17.164C107.273 17.2819 107.606 17.3405 108.036 17.3405C108.507 17.3405 109.014 17.2636 109.557 17.1098L109.526 17.8941C109.229 17.9864 108.958 18.0523 108.712 18.0941C108.466 18.1351 108.159 18.1556 107.79 18.1556C107.207 18.1556 106.744 18.0633 106.4 17.8788H106.399Z" fill="#00A868"/>
<path id="Vector_9" d="M111.053 9.97948H112.021V11.7467H112.052C112.164 11.1007 112.428 10.6196 112.842 10.3017C113.257 9.98387 113.793 9.82568 114.448 9.82568C114.806 9.82568 115.108 9.85644 115.354 9.91796L115.431 10.8092C115.349 10.799 115.252 10.7939 115.139 10.7939C114.842 10.7734 114.602 10.7631 114.416 10.7631C113.71 10.7631 113.182 10.9088 112.834 11.201C112.486 11.4933 112.26 11.8902 112.159 12.3919C112.056 12.8943 112.005 13.5446 112.005 14.3436V18.001H111.052V9.97875L111.053 9.97948Z" fill="#00A868"/>
<path id="Vector_10" d="M117.08 17.0716C116.399 16.3495 116.058 15.3638 116.058 14.1136C116.058 13.2018 116.217 12.4255 116.534 11.7855C116.851 11.1454 117.295 10.6584 117.863 10.3252C118.432 9.99193 119.095 9.82568 119.853 9.82568C120.878 9.82568 121.627 10.1047 122.104 10.6628C122.58 11.2216 122.818 12.0022 122.818 13.0063C122.818 13.3754 122.802 13.642 122.772 13.8053H116.688L116.703 12.9909H122.326L121.88 13.4523C121.89 13.278 121.9 13.0986 121.911 12.9148C121.911 12.1773 121.739 11.6163 121.396 11.2318C121.053 10.8473 120.533 10.6554 119.836 10.6554C118.976 10.6554 118.297 10.9352 117.801 11.4933C117.304 12.052 117.056 12.8789 117.056 13.9752C117.056 15.0715 117.307 15.9167 117.808 16.4799C118.31 17.0438 119.104 17.325 120.19 17.325C120.794 17.325 121.293 17.2562 121.688 17.1177C122.083 16.9793 122.438 16.7721 122.756 16.4952V17.4327C122.142 17.9138 121.255 18.1548 120.099 18.1548C118.767 18.1548 117.761 17.7937 117.079 17.0709L117.08 17.0716Z" fill="#00A868"/>
<path id="Vector_11" d="M125.601 20.7373C125.155 20.6142 124.778 20.4399 124.472 20.2144V19.2462C124.8 19.523 125.168 19.7325 125.578 19.876C125.987 20.0196 126.495 20.0913 127.099 20.0913C127.806 20.0913 128.341 19.9661 128.705 19.7149C129.068 19.4637 129.312 19.1078 129.435 18.6464C129.558 18.185 129.619 17.5662 129.619 16.787V15.7726L129.727 15.9726L129.665 16.0187C129.45 16.5211 129.128 16.8997 128.698 17.1561C128.267 17.4124 127.735 17.5406 127.1 17.5406C126.086 17.5406 125.315 17.241 124.788 16.6412C124.26 16.0422 123.996 15.1838 123.996 14.067C123.996 13.1245 124.176 12.3357 124.534 11.7C124.893 11.0651 125.389 10.5934 126.025 10.2866C126.659 9.97899 127.392 9.8252 128.222 9.8252C128.673 9.8252 129.128 9.86328 129.589 9.94017C130.051 10.0171 130.393 10.1115 130.619 10.2243V16.9093C130.619 17.7903 130.513 18.5204 130.304 19.099C130.094 19.6776 129.738 20.1258 129.236 20.4436C128.734 20.7607 128.058 20.9196 127.208 20.9196C126.584 20.9196 126.049 20.8581 125.603 20.7351L125.601 20.7373ZM128.966 16.1879C129.4 15.84 129.619 15.3069 129.619 14.5899V10.7787C129.147 10.6454 128.661 10.5788 128.159 10.5788C127.145 10.5788 126.366 10.8783 125.823 11.4781C125.281 12.0772 125.009 12.915 125.009 13.9908C125.009 14.9026 125.188 15.5837 125.546 16.0348C125.904 16.486 126.514 16.7108 127.375 16.7108C127.999 16.7108 128.529 16.5365 128.965 16.1879H128.966Z" fill="#00A868"/>
<path id="Vector_12" d="M132.949 17.6021C132.478 17.233 132.243 16.6903 132.243 15.9733C132.243 15.5024 132.335 15.1077 132.519 14.7898C132.703 14.4727 132.987 14.2164 133.372 14.0216C133.756 13.8268 134.249 13.684 134.854 13.5917L137.543 13.1611L137.619 13.9908L134.992 14.3907C134.336 14.4932 133.881 14.6624 133.625 14.8982C133.369 15.134 133.24 15.4724 133.24 15.9125C133.24 16.3944 133.396 16.7606 133.709 17.0111C134.022 17.2615 134.465 17.3875 135.038 17.3875C135.673 17.3875 136.203 17.2059 136.628 16.8419C137.053 16.4786 137.266 15.7997 137.266 14.8059L137.527 15.9125L137.404 16.2201C137.179 16.9576 136.854 17.4651 136.429 17.742C136.004 18.018 135.448 18.1565 134.762 18.1565C134.025 18.1565 133.42 17.9719 132.949 17.6035V17.6021ZM137.267 16.1725V12.6689C137.267 12.023 137.115 11.5294 136.813 11.1859C136.511 10.8432 136.007 10.6711 135.3 10.6711C134.828 10.6711 134.38 10.7531 133.956 10.9171C133.53 11.0812 133.128 11.2965 132.749 11.5623V10.6711C132.995 10.4558 133.363 10.2617 133.855 10.0866C134.347 9.91234 134.869 9.8252 135.422 9.8252C136.057 9.8252 136.582 9.93505 136.997 10.1555C137.412 10.3759 137.72 10.696 137.919 11.1163C138.119 11.5367 138.218 12.0384 138.218 12.6228V18.0019H137.266V16.1732L137.267 16.1725Z" fill="#00A868"/>
</g>
</g>
</svg>
