<svg width="22" height="24" viewBox="0 0 22 24" fill="none" xmlns="http://www.w3.org/2000/svg">
<g id="Group">
<path id="Vector (Stroke)" fill-rule="evenodd" clip-rule="evenodd" d="M1.75 18.0001V17.0566H3.75V18.0001C3.75 19.9334 5.31679 21.5001 7.25 21.5001H8.75V23.5001H7.25C4.21222 23.5001 1.75 21.0379 1.75 18.0001Z" fill="#00A868"/>
<path id="Vector (Stroke)_2" fill-rule="evenodd" clip-rule="evenodd" d="M8.75 1.75C5.57403 1.75 3 4.32403 3 7.5V11.5027H1V7.5C1 3.21946 4.46947 -0.25 8.75 -0.25H13.25C17.5305 -0.25 21 3.21946 21 7.5V11.5072H19V7.5C19 4.32403 16.426 1.75 13.25 1.75H8.75Z" fill="#00A868"/>
<path id="Vector (Stroke)_3" fill-rule="evenodd" clip-rule="evenodd" d="M0.25 13.875C0.25 11.0442 2.54422 8.75 5.375 8.75C5.86504 8.75 6.33319 8.82251 6.77232 8.94679L7.5 9.15274V18.5973L6.77232 18.8032C6.33319 18.9275 5.86504 19 5.375 19C2.54422 19 0.25 16.7058 0.25 13.875ZM5.375 10.75C3.64878 10.75 2.25 12.1488 2.25 13.875C2.25 15.6012 3.64878 17 5.375 17C5.4168 17 5.45847 16.9991 5.5 16.9974V10.7526C5.45847 10.7509 5.4168 10.75 5.375 10.75Z" fill="#00A868"/>
<path id="Vector (Stroke)_4" fill-rule="evenodd" clip-rule="evenodd" d="M15.2277 8.94679C15.6668 8.82251 16.135 8.75 16.625 8.75C19.4558 8.75 21.75 11.0442 21.75 13.875C21.75 16.7058 19.4558 19 16.625 19C16.135 19 15.6668 18.9275 15.2277 18.8032L14.5 18.5973V9.15274L15.2277 8.94679ZM16.5 10.7526V16.9974C16.5415 16.9991 16.5832 17 16.625 17C18.3512 17 19.75 15.6012 19.75 13.875C19.75 12.1488 18.3512 10.75 16.625 10.75C16.5832 10.75 16.5415 10.7509 16.5 10.7526Z" fill="#00A868"/>
<path id="Vector (Stroke)_5" fill-rule="evenodd" clip-rule="evenodd" d="M7.75 20.75H14.25V24.25H7.75V20.75Z" fill="#00A868"/>
<path id="Vector" d="M13.25 21.75H8.75V23.25H13.25V21.75Z" fill="#00A868"/>
</g>
</svg>
