<svg width="23" height="24" viewBox="0 0 23 24" fill="none" xmlns="http://www.w3.org/2000/svg">
<g id="shield-cash" clip-path="url(#clip0_8846_18447)">
<g id="Group 4634">
<g id="Group">
<path id="Vector" d="M11.4695 5.97363V18.0259" stroke="#00A868" stroke-width="2" stroke-miterlimit="10" stroke-linecap="square"/>
<path id="Vector_2" d="M14.375 7.884C12.9795 7.11696 8.58391 6.54448 8.58391 9.18651C8.58391 12.3494 14.1658 11.2328 14.1658 14.0238C14.1658 16.8147 10.5381 16.6047 8.02606 15.6982" stroke="#00A868" stroke-width="2" stroke-miterlimit="10" stroke-linecap="square"/>
</g>
<path id="Vector_3" d="M21.0834 13.5061C21.0834 15.9025 20.0737 18.2008 18.2765 19.8953C16.4792 21.5899 14.0417 22.5418 11.5 22.5418C8.95836 22.5418 6.5208 21.5899 4.72358 19.8953C2.92636 18.2008 1.91669 15.9025 1.91669 13.5061V3.46643L11.5 1.4585L21.0834 3.46643V13.5061Z" stroke="#00A868" stroke-width="2" stroke-miterlimit="10" stroke-linecap="square"/>
</g>
</g>
<defs>
<clipPath id="clip0_8846_18447">
<rect width="23" height="23" fill="white" transform="translate(0 0.5)"/>
</clipPath>
</defs>
</svg>
