<svg width="96" height="24" viewBox="0 0 96 24" fill="none" xmlns="http://www.w3.org/2000/svg">
<g id="Logo">
<path id="Vector" d="M54.1635 23.3795H58.4473C58.4889 23.3823 58.5307 23.377 58.5702 23.3641C58.6096 23.3512 58.6459 23.3309 58.6767 23.3044C58.7075 23.2779 58.7323 23.2457 58.7496 23.2099C58.7668 23.1741 58.7761 23.1354 58.7769 23.0961V11.9579C58.7769 8.79952 60.4251 7.13528 63.2706 7.13528C66.1162 7.13528 67.7342 8.79952 67.7342 11.9579V23.0975C67.7351 23.1368 67.7444 23.1755 67.7616 23.2113C67.7788 23.2472 67.8036 23.2793 67.8344 23.3058C67.8653 23.3323 67.9015 23.3526 67.941 23.3656C67.9804 23.3785 68.0222 23.3837 68.0639 23.3809H72.3476C72.3893 23.3837 72.4311 23.3785 72.4706 23.3656C72.51 23.3526 72.5463 23.3323 72.5771 23.3058C72.6079 23.2793 72.6327 23.2472 72.6499 23.2113C72.6672 23.1755 72.6765 23.1368 72.6773 23.0975V11.9863C72.6773 7.21959 69.8618 3.0459 63.2699 3.0459C56.6779 3.0459 53.8339 7.21959 53.8339 11.9863V23.0975C53.8349 23.1367 53.8443 23.1753 53.8616 23.2109C53.8789 23.2466 53.9038 23.2785 53.9346 23.3049C53.9654 23.3312 54.0016 23.3514 54.0409 23.3643C54.0803 23.3771 54.122 23.3823 54.1635 23.3795Z" fill="#00A868"/>
<path id="Vector_2" d="M24.685 23.6337C26.2428 23.6337 27.2611 23.4644 27.7104 23.295C27.7774 23.2698 27.8355 23.2273 27.8779 23.1724C27.9204 23.1175 27.9456 23.0525 27.9505 22.9847V19.6548C27.9505 19.4572 27.8602 19.3445 27.5907 19.3445C27.3808 19.3445 26.7817 19.4572 26.3023 19.4572C24.4449 19.4572 23.6366 18.8089 23.6366 17.2857V7.89679H27.5907C27.6779 7.89605 27.7613 7.86312 27.823 7.80508C27.8846 7.74705 27.9196 7.66855 27.9204 7.58647V3.9484C27.9196 3.86632 27.8846 3.78782 27.823 3.72978C27.7613 3.67175 27.6779 3.63882 27.5907 3.63808H23.4869V0.479645C23.4869 0.140988 23.3363 0 23.0669 0H19.0225C18.6936 0 18.5438 0.141697 18.5438 0.479645V17.7667C18.5438 21.9695 21.0296 23.6337 24.685 23.6337Z" fill="#00A868"/>
<path id="Vector_3" d="M7.49056 23.8588C12.3139 23.8588 15.7593 21.0667 15.7593 17.4286C15.7593 13.3392 12.8829 12.1554 8.95886 11.3654L7.01115 10.9708C5.5436 10.6604 4.73456 10.0115 4.73456 8.9119C4.73456 7.50201 6.23222 6.74039 8.29959 6.74039C11.2054 6.74039 13.1824 7.98095 13.4819 7.98095C13.5652 7.97574 13.6454 7.94942 13.714 7.90476C13.7827 7.8601 13.8372 7.79878 13.8718 7.72731L14.6507 4.99185C14.8012 4.62485 14.7704 4.54054 14.5002 4.39955C12.7625 3.55362 10.9051 3.07397 8.26874 3.07397C3.38591 3.07397 0 5.72513 0 9.25056C0 12.5804 2.72664 14.4112 6.62282 15.2018L8.59988 15.5965C10.1878 15.9068 11.0834 16.4991 11.0834 17.768C11.0834 19.0652 10.005 20.1931 7.45819 20.1931C3.86306 20.1931 1.4066 18.8399 1.0175 18.8399C0.777427 18.8399 0.687871 18.9526 0.598312 19.3189L0.0888054 21.6037C-0.0617132 22.0827 0.0888058 22.393 0.418441 22.534C1.64743 23.1822 5.00248 23.8588 7.49056 23.8588Z" fill="#00A868"/>
<path id="Vector_4" d="M40.1735 19.9391C37.0277 19.9391 34.1528 17.7109 34.1528 13.5088C34.1528 9.30679 37.0285 7.13245 40.1735 7.13245C43.3487 7.13245 46.1649 9.30396 46.1649 13.5088C46.1649 17.7392 43.3487 19.9391 40.1735 19.9391ZM40.1735 24.0001C46.4645 24.0001 51.0478 19.5728 51.0478 13.5088C51.0478 7.44489 46.4645 3.0459 40.1735 3.0459C33.912 3.0459 29.2986 7.4456 29.2986 13.5088C29.2986 19.5721 33.912 24.0001 40.1735 24.0001Z" fill="#00A868"/>
<path id="Vector_5" d="M96 13.2835C96 7.04885 92.1949 3.0459 86.141 3.0459C80.4492 3.0459 75.5363 7.16362 75.5363 13.4245C75.5363 20.1084 80.5688 24.0001 85.9612 24.0001C90.485 24.0001 93.095 22.3217 94.7093 20.2777C95.0216 19.8817 95.0856 19.7109 95.0856 19.6004C95.0856 19.4899 95.0103 19.4034 94.7387 19.1753L92.8511 17.6244C92.3996 17.2581 92.2491 17.1448 92.0986 17.1448C91.948 17.1448 91.8585 17.2298 91.7388 17.3708C90.4504 19.0067 88.6532 19.9369 86.2268 19.9369C83.166 19.9369 81.1265 17.9794 80.6087 14.8039H94.4331C95.3972 14.8061 96 14.5205 96 13.2835ZM85.9634 6.96596C89.2327 6.96596 90.9629 9.04253 91.057 11.3373H80.6817C81.2499 8.8732 83.0268 6.96596 85.9634 6.96596Z" fill="#00A868"/>
</g>
</svg>
